name C:\Users\antoi\Documents\MyRepositories\upper-imu-dc\Results\main_tracking\Case_78\FLX01_angularVelocities_bodyFrame.mot
datacolumns 4
datarows 94
range 0.71000000 1.64000000
endheader 
time	radius_imu_x	radius_imu_y	radius_imu_z	
          0.71000000	         -0.73186034	          0.27707329	          0.21561925	
          0.72000000	         -0.77049074	          0.26967854	          0.22569991	
          0.73000000	         -0.80989267	          0.26505574	          0.23696877	
          0.74000000	         -0.84986399	          0.26381008	          0.24958623	
          0.75000000	         -0.89013984	          0.26630236	          0.26374417	
          0.76000000	         -0.93044389	          0.27295048	          0.27959078	
          0.77000000	         -0.97051116	          0.28391165	          0.29724294	
          0.78000000	         -1.01010094	          0.29909913	          0.31678183	
          0.79000000	         -1.04896624	          0.31809092	          0.33825773	
          0.80000000	         -1.08688734	          0.34012782	          0.36166498	
          0.81000000	         -1.12398173	          0.36405008	          0.38684818	
          0.82000000	         -1.16014432	          0.38754249	          0.41281733	
          0.83000000	         -1.19546306	          0.40828464	          0.43862873	
          0.84000000	         -1.23012366	          0.42502950	          0.46412844	
          0.85000000	         -1.26395399	          0.43669894	          0.48919573	
          0.86000000	         -1.29682393	          0.44233643	          0.51372308	
          0.87000000	         -1.32867620	          0.44121312	          0.53766452	
          0.88000000	         -1.35952075	          0.43279541	          0.56099692	
          0.89000000	         -1.38921337	          0.41681973	          0.58380822	
          0.90000000	         -1.41761765	          0.39316840	          0.60616990	
          0.91000000	         -1.44466192	          0.36191517	          0.62811352	
          0.92000000	         -1.47018920	          0.32351274	          0.64973610	
          0.93000000	         -1.49406360	          0.27871982	          0.67111948	
          0.94000000	         -1.51618277	          0.22854881	          0.69232457	
          0.95000000	         -1.53647241	          0.17430002	          0.71339570	
          0.96000000	         -1.55491650	          0.11755782	          0.73433206	
          0.97000000	         -1.57154428	          0.06017560	          0.75510264	
          0.98000000	         -1.58636199	          0.00411495	          0.77568134	
          0.99000000	         -1.59942034	         -0.04836650	          0.79597481	
          1.00000000	         -1.61079353	         -0.09520252	          0.81582680	
          1.01000000	         -1.62060612	         -0.13492943	          0.83510114	
          1.02000000	         -1.62910572	         -0.16580311	          0.85363773	
          1.03000000	         -1.63630043	         -0.18642450	          0.87115562	
          1.04000000	         -1.64220965	         -0.19650221	          0.88738808	
          1.05000000	         -1.64691675	         -0.19469933	          0.90211591	
          1.06000000	         -1.65065917	         -0.18157069	          0.91500882	
          1.07000000	         -1.65362498	         -0.15820818	          0.92581075	
          1.08000000	         -1.65586136	         -0.12469054	          0.93423899	
          1.09000000	         -1.65741234	         -0.08206966	          0.94005730	
          1.10000000	         -1.65836186	         -0.03164822	          0.94309608	
          1.11000000	         -1.65883738	          0.02525377	          0.94320555	
          1.12000000	         -1.65890820	          0.08735039	          0.94027540	
          1.13000000	         -1.65860041	          0.15329265	          0.93425667	
          1.14000000	         -1.65793639	          0.22175984	          0.92514880	
          1.15000000	         -1.65693471	          0.29158052	          0.91298364	
          1.16000000	         -1.65559139	          0.36161911	          0.89784196	
          1.17000000	         -1.65389100	          0.43081670	          0.87985364	
          1.18000000	         -1.65183885	          0.49827792	          0.85918354	
          1.19000000	         -1.64938989	          0.56316432	          0.83604453	
          1.20000000	         -1.64648081	          0.62488545	          0.81066910	
          1.21000000	         -1.64310195	          0.68287762	          0.78332005	
          1.22000000	         -1.63919319	          0.73680850	          0.75426897	
          1.23000000	         -1.63471890	          0.78638598	          0.72378612	
          1.24000000	         -1.62959528	          0.83156447	          0.69212570	
          1.25000000	         -1.62377475	          0.87217318	          0.65955347	
          1.26000000	         -1.61719696	          0.90841832	          0.62626167	
          1.27000000	         -1.60974740	          0.94016640	          0.59245642	
          1.28000000	         -1.60139918	          0.96764970	          0.55828777	
          1.29000000	         -1.59213434	          0.99101668	          0.52390391	
          1.30000000	         -1.58180404	          1.00993360	          0.48951883	
          1.31000000	         -1.57041150	          1.02485212	          0.45525765	
          1.32000000	         -1.55793156	          1.03596249	          0.42122523	
          1.33000000	         -1.54436398	          1.04322877	          0.38757878	
          1.34000000	         -1.52972408	          1.04666988	          0.35447880	
          1.35000000	         -1.51397178	          1.04657534	          0.32204017	
          1.36000000	         -1.49718430	          1.04330369	          0.29036029	
          1.37000000	         -1.47945454	          1.03709413	          0.25953516	
          1.38000000	         -1.46090525	          1.02837649	          0.22962254	
          1.39000000	         -1.44166307	          1.01747612	          0.20068483	
          1.40000000	         -1.42188049	          1.00490528	          0.17276503	
          1.41000000	         -1.40175880	          0.99119964	          0.14589164	
          1.42000000	         -1.38150626	          0.97696404	          0.12008180	
          1.43000000	         -1.36130381	          0.96287611	          0.09534316	
          1.44000000	         -1.34131142	          0.94928751	          0.07171788	
          1.45000000	         -1.32169330	          0.93664861	          0.04920719	
          1.46000000	         -1.30260662	          0.92518672	          0.02781266	
          1.47000000	         -1.28416862	          0.91499246	          0.00753577	
          1.48000000	         -1.26646992	          0.90603612	         -0.01164288	
          1.49000000	         -1.24959319	          0.89795597	         -0.02972571	
          1.50000000	         -1.23360418	          0.89042001	         -0.04673284	
          1.51000000	         -1.21855901	          0.88287522	         -0.06267655	
          1.52000000	         -1.20450129	          0.87476443	         -0.07756736	
          1.53000000	         -1.19147348	          0.86563080	         -0.09142719	
          1.54000000	         -1.17951774	          0.85499352	         -0.10427349	
          1.55000000	         -1.16865608	          0.84263256	         -0.11613375	
          1.56000000	         -1.15890425	          0.82840953	         -0.12703428	
          1.57000000	         -1.15026333	          0.81238509	         -0.13701234	
          1.58000000	         -1.14272317	          0.79488040	         -0.14612689	
          1.59000000	         -1.13627289	          0.77628343	         -0.15445152	
          1.60000000	         -1.13089236	          0.75716867	         -0.16208646	
          1.61000000	         -1.12655994	          0.73814390	         -0.16915071	
          1.62000000	         -1.12325146	          0.71980439	         -0.17578315	
          1.63000000	         -1.12093474	          0.70268710	         -0.18213911	
          1.64000000	         -1.11957435	          0.68715464	         -0.18837027	
